<svg width="120" height="120" viewBox="0 0 120 120" fill="none" xmlns="http://www.w3.org/2000/svg">
<rect width="120" height="120" rx="10" fill="#4338CA"/>
<path d="M27.5925 66.7736C26.8459 66.7736 26.1942 66.6101 25.6374 66.283C25.0806 65.9434 24.6441 65.4906 24.3277 64.9245C24.024 64.3585 23.8722 63.7296 23.8722 63.0378V55.5472H20V53.566H30.0031V55.5472H26.131V63.3207C26.131 63.7233 26.2701 64.0692 26.5485 64.3585C26.8269 64.6478 27.1812 64.7924 27.6115 64.7924H28.5226V66.7736H27.5925ZM28.1957 66.7736V59.8868C28.1957 59.0314 28.4362 58.3648 28.917 57.8868C29.4105 57.3962 30.0875 57.1509 30.948 57.1509H33.2827V59H31.3466C31.0429 59 30.8025 59.0881 30.6253 59.2642C30.4608 59.4402 30.3786 59.6792 30.3786 59.9811V66.7736H28.1957ZM37.9663 67C37.0426 67 36.2454 66.7736 35.5747 66.3208C34.904 65.8679 34.3852 65.2642 34.0182 64.5094C33.6639 63.7421 33.4868 62.8994 33.4868 61.9811C33.4868 61.0252 33.6892 60.1698 34.0942 59.4151C34.5117 58.6478 35.1002 58.044 35.8594 57.6038C36.6313 57.1509 37.5487 56.9245 38.6117 56.9245C39.662 56.9245 40.5541 57.1509 41.288 57.6038C42.0347 58.044 42.6041 58.6478 42.9964 59.4151C43.4013 60.1698 43.6037 61.0126 43.6037 61.9434V66.7736H41.4209V64.9811H41.3829C41.1931 65.3333 40.9464 65.6667 40.6427 65.9811C40.339 66.283 39.9657 66.5283 39.5228 66.717C39.0799 66.9057 38.5611 67 37.9663 67ZM38.5548 65.1509C39.1242 65.1509 39.6177 65.0126 40.0353 64.7358C40.4655 64.4465 40.7946 64.0629 41.0223 63.5849C41.2628 63.0943 41.3829 62.5472 41.3829 61.9434C41.3829 61.3396 41.2691 60.805 41.0413 60.3396C40.8135 59.8616 40.4909 59.4843 40.0733 59.2076C39.6556 58.9183 39.1558 58.7736 38.5737 58.7736C37.9663 58.7736 37.4475 58.9183 37.0173 59.2076C36.587 59.4843 36.258 59.8616 36.0303 60.3396C35.8025 60.8176 35.6886 61.3585 35.6886 61.9623C35.6886 62.5534 35.8025 63.0943 36.0303 63.5849C36.258 64.0629 36.5807 64.4465 36.9983 64.7358C37.4285 65.0126 37.9473 65.1509 38.5548 65.1509ZM45.4564 66.7736V61.2264C45.4564 60.3962 45.6462 59.6604 46.0258 59.0189C46.4054 58.3648 46.9432 57.8553 47.6392 57.4906C48.3352 57.1132 49.1514 56.9245 50.0878 56.9245C51.0242 56.9245 51.834 57.1132 52.5174 57.4906C53.2134 57.8553 53.7511 58.3648 54.1308 59.0189C54.5104 59.6604 54.7002 60.3962 54.7002 61.2264V66.7736H52.5364V61.2453C52.5364 60.7547 52.4225 60.327 52.1947 59.9623C51.9669 59.5849 51.6632 59.2956 51.2836 59.0943C50.9166 58.8805 50.5117 58.7736 50.0688 58.7736C49.6385 58.7736 49.2336 58.8805 48.854 59.0943C48.487 59.2956 48.1897 59.5849 47.9619 59.9623C47.7467 60.327 47.6392 60.7547 47.6392 61.2453V66.7736H45.4564ZM56.5224 66.7736V64.9245H61.1919C61.4196 64.9245 61.6157 64.8742 61.7802 64.7736C61.9575 64.6729 62.0901 64.5409 62.1788 64.3774C62.2799 64.2138 62.3306 64.044 62.3306 63.8679C62.3306 63.6667 62.2863 63.4906 62.198 63.3396C62.1093 63.1887 61.9827 63.0692 61.8182 62.9811C61.6536 62.8805 61.4639 62.8302 61.2486 62.8302H59.3507C58.7305 62.8302 58.1801 62.7296 57.6992 62.5283C57.2184 62.327 56.8388 62.0189 56.5604 61.6038C56.282 61.1761 56.1428 60.6415 56.1428 60C56.1428 59.4843 56.2693 59.0126 56.5224 58.5849C56.7882 58.1572 57.1425 57.8113 57.5854 57.5472C58.0283 57.283 58.528 57.1509 59.0847 57.1509H63.5835V59H59.2936C59.0025 59 58.762 59.0943 58.5723 59.283C58.3826 59.4591 58.2876 59.6792 58.2876 59.9434C58.2876 60.195 58.3826 60.4151 58.5723 60.6038C58.762 60.7924 59.0152 60.8868 59.3316 60.8868H61.1727C61.8689 60.8868 62.4636 60.9937 62.9572 61.2076C63.4505 61.4214 63.8239 61.7421 64.0771 62.1698C64.3427 62.5975 64.4757 63.1384 64.4757 63.7925C64.4757 64.3208 64.3427 64.8176 64.0771 65.283C63.8111 65.7359 63.4441 66.1006 62.976 66.3774C62.5203 66.6415 62.0015 66.7736 61.4196 66.7736H56.5224ZM70.5541 66.7736C69.5545 66.7736 68.6626 66.5598 67.8778 66.1321C67.0934 65.7044 66.4732 65.1321 66.0178 64.4151C65.5622 63.6855 65.3345 62.8679 65.3345 61.9623C65.3345 61.0566 65.5622 60.2453 66.0178 59.5283C66.4732 58.7988 67.0934 58.2201 67.8778 57.7925C68.6626 57.3648 69.5545 57.1509 70.5541 57.1509H71.7311V59H70.5162C69.9343 59 69.4155 59.1321 68.9598 59.3962C68.5169 59.6478 68.169 60 67.9158 60.4528C67.6629 60.9057 67.5363 61.4088 67.5363 61.9623C67.5363 62.5157 67.6629 63.0189 67.9158 63.4717C68.169 63.9245 68.5169 64.283 68.9598 64.5472C69.4155 64.7988 69.9343 64.9245 70.5162 64.9245H71.7311V66.7736H70.5541ZM72.7981 66.7736V59.8868C72.7981 59.0314 73.0385 58.3648 73.5194 57.8868C74.0126 57.3962 74.6896 57.1509 75.5503 57.1509H77.8847V59H75.9489C75.6449 59 75.4045 59.0881 75.2276 59.2642C75.063 59.4402 74.9807 59.6792 74.9807 59.9811V66.7736H72.7981ZM78.6395 66.7736V57.1509H80.8221V66.7736H78.6395ZM79.7214 55.8113C79.3416 55.8113 79.0129 55.673 78.7341 55.3962C78.4557 55.1195 78.3167 54.7925 78.3167 54.4151C78.3167 54.0377 78.4557 53.7107 78.7341 53.434C79.0129 53.1572 79.3416 53.0189 79.7214 53.0189C80.1136 53.0189 80.4427 53.1572 80.7083 53.434C80.9867 53.7107 81.1261 54.0377 81.1261 54.4151C81.1261 54.7925 80.9867 55.1195 80.7083 55.3962C80.4427 55.673 80.1136 55.8113 79.7214 55.8113ZM87.635 67C86.6481 67 85.7751 66.7924 85.0158 66.3774C84.2566 65.9623 83.6619 65.3711 83.2314 64.6038C82.814 63.8239 82.6051 62.9057 82.6051 61.8491V53H84.7882V58.6038H84.8069C85.0094 58.2641 85.275 57.9685 85.6041 57.717C85.9332 57.4654 86.3002 57.2704 86.7052 57.1321C87.1102 56.9937 87.5404 56.9245 87.9957 56.9245C88.9195 56.9245 89.7294 57.1321 90.4256 57.5472C91.1341 57.9497 91.6844 58.5157 92.0767 59.2453C92.4816 59.9748 92.6841 60.8302 92.6841 61.8113C92.6841 62.5786 92.5639 63.283 92.3235 63.9245C92.0958 64.5534 91.7603 65.1006 91.3174 65.5661C90.8873 66.0315 90.3621 66.3899 89.7422 66.6415C89.122 66.8805 88.4198 67 87.635 67ZM87.635 65.1509C88.1918 65.1509 88.6854 65.0189 89.1156 64.7547C89.5461 64.478 89.8812 64.1006 90.1216 63.6226C90.3621 63.1447 90.4823 62.5912 90.4823 61.9623C90.4823 61.3459 90.3621 60.7988 90.1216 60.3208C89.8812 59.8428 89.5461 59.4654 89.1156 59.1887C88.6982 58.9119 88.2109 58.7736 87.6542 58.7736C87.0974 58.7736 86.6038 58.9119 86.1736 59.1887C85.7435 59.4528 85.408 59.8239 85.1676 60.3019C84.9272 60.7799 84.8069 61.3333 84.8069 61.9623C84.8069 62.5912 84.9272 63.1447 85.1676 63.6226C85.408 64.1006 85.7435 64.478 86.1736 64.7547C86.6038 65.0189 87.0911 65.1509 87.635 65.1509ZM93.913 66.7736V59.8868C93.913 59.0314 94.1534 58.3648 94.6343 57.8868C95.1279 57.3962 95.8049 57.1509 96.6652 57.1509H99V59H97.0641C96.7602 59 96.5198 59.0881 96.3428 59.2642C96.1783 59.4402 96.096 59.6792 96.096 59.9811V66.7736H93.913Z" fill="white"/>
</svg>
